#!OML:ASF H:\IndianDance\Patient Classification 1\Patient 1\Session 1\dancer.ASF
:FULLY-SPECIFIED
:DEGREES
2252
root 8.89258 15.6307 11.2729 -173.034 -12.159 -174.554
lowerback 6.09055 1.86829 -0.127544
upperback -3.41833 2.57026 2.90519
thorax -7.14437 1.29963 2.81189
lowerneck -15.3487 -5.18842 -6.39245
upperneck 29.3155 -14.9836 17.2469
head 14.6908 -6.26159 5.1873
rclavicle -4.67889e-014 -3.00165e-014
rhumerus 1.10251 41.4802 -82.4573
rradius 81.7653
rwrist -92.2588
rhand -16.8312 -9.7982
rfingers 7.12502
rthumb 9.39818 -39.5687
lclavicle -4.67889e-014 -3.00165e-014
lhumerus 30.1792 -56.3958 41.9401
lradius 94.1821
lwrist 76.5353
lhand -3.08798 21.9226
lfingers 7.12502
lthumb 22.6295 50.616
rfemur -34.3089 -19.4438 23.6269
rtibia 57.2695
rfoot -4.72947 9.41708
rtoes -12.4292
lfemur 145.302 167.02 166.666
ltibia 57.5022
lfoot 3.90763 -6.60131
ltoes -1.56792
2253
root 8.67972 15.6176 11.3 -172.798 -11.794 -175.063
lowerback 6.18437 1.79034 -0.417934
upperback -3.43791 2.43927 2.67486
thorax -7.21387 1.24921 2.74584
lowerneck -15.3444 -5.31693 -6.58975
upperneck 28.9815 -14.9713 17.2516
head 14.5507 -6.27081 5.21244
rclavicle -8.44835e-016 -1.72943e-014
rhumerus 0.716403 41.136 -82.8724
rradius 82.3124
rwrist -92.7447
rhand -17.0946 -9.91238
rfingers 7.12502
rthumb 9.14402 -39.6941
lclavicle -8.44835e-016 -1.72943e-014
lhumerus 29.078 -56.2091 42.5563
lradius 94.9119
lwrist 76.8154
lhand -2.71287 21.9238
lfingers 7.12502
lthumb 22.9895 50.5729
rfemur -35.3994 -20.1419 24.976
rtibia 57.998
rfoot -4.77587 12.6918
rtoes -13.663
lfemur 144.59 166.008 165.522
ltibia 58.4883
lfoot 4.91658 -8.2605
ltoes -0.253111
2254
root 8.46691 15.6007 11.324 -172.545 -11.571 -175.502
lowerback 6.17939 1.67979 -0.658984
upperback -3.46157 2.26649 2.50378
thorax -7.22881 1.17533 2.7226
lowerneck -15.3406 -5.47014 -6.80308
upperneck 28.6169 -14.9303 17.1744
head 14.384 -6.27139 5.21135
rclavicle 3.68249e-014 2.18663e-015
rhumerus 0.365938 40.8415 -83.1294
rradius 82.9277
rwrist -93.1842
rhand -17.3797 -10.0146
rfingers 7.12502
rthumb 8.86895 -39.8083
lclavicle 3.68249e-014 2.18663e-015
lhumerus 27.8344 -55.943 43.3957
lradius 95.7176
lwrist 77.0707
lhand -2.32843 21.9095
lfingers 7.12502
lthumb 23.3584 50.5122
rfemur -36.2603 -20.6608 26.2334
rtibia 58.3482
rfoot -4.06494 15.3944
rtoes -13.6926
lfemur 143.737 165.024 164.559
ltibia 59.562
lfoot 6.20298 -10.1266
ltoes 1.78677
2255
root 8.25328 15.5801 11.3447 -172.286 -11.4736 -175.872
lowerback 6.07031 1.53806 -0.804498
upperback -3.47887 2.05884 2.36562
thorax -7.17199 1.07871 2.68693
lowerneck -15.3381 -5.64314 -7.02704
upperneck 28.218 -14.8683 17.039
head 14.1945 -6.2649 5.19164
rclavicle 3.20789e-014 -1.33186e-014
rhumerus 0.079963 40.612 -83.2158
rradius 83.6143
rwrist -93.5821
rhand -17.7035 -10.1233
rfingers 7.12502
rthumb 8.5565 -39.93
lclavicle 3.20789e-014 -1.33186e-014
lhumerus 26.5168 -55.5971 44.3565
lradius 96.6001
lwrist 77.3305
lhand -1.95351 21.8974
lfingers 7.12502
lthumb 23.718 50.4539
rfemur -36.8683 -20.9682 27.3411
rtibia 58.3409
rfoot -2.97467 17.3113
rtoes -12.23
lfemur 142.802 164.156 163.819
ltibia 60.6932
lfoot 7.69136 -12.1031
ltoes 4.09279
2256
root 8.03841 15.5561 11.3625 -172.04 -11.473 -176.182
lowerback 5.87749 1.37585 -0.861987
upperback -3.48786 1.83104 2.25439
thorax -7.05462 0.967057 2.63354
lowerneck -15.339 -5.83292 -7.23362
upperneck 27.7986 -14.7894 16.8251
head 13.9856 -6.25235 5.14015
rclavicle 1.47846e-014 -1.68967e-014
rhumerus -0.131884 40.4529 -83.1224
rradius 84.3658
rwrist -93.9593
rhand -18.1053 -10.2694
rfingers 7.12502
rthumb 8.16874 -40.0915
lclavicle 1.47846e-014 -1.68967e-014
lhumerus 25.1693 -55.1913 45.3804
lradius 97.5608
lwrist 77.612
lhand -1.64953 21.9083
lfingers 7.12502
lthumb 24.0095 50.4267
rfemur -37.1896 -21.0203 28.2258
rtibia 58.0331
rfoot -2.12255 18.1855
rtoes -9.908
lfemur 141.851 163.464 163.343
ltibia 61.8522
lfoot 9.34862 -13.9197
ltoes 7.1
2257
root 7.82269 15.5275 11.3779 -171.823 -11.5415 -176.451
lowerback 5.64049 1.20207 -0.856289
upperback -3.49582 1.59311 2.16125
thorax -6.90926 0.846866 2.56432
lowerneck -15.3261 -6.03695 -7.44052
upperneck 27.3559 -14.6998 16.5562
head 13.7587 -6.23847 5.06958
rclavicle -3.94339e-014 -2.14687e-014
rhumerus -0.281689 40.3517 -82.8763
rradius 85.1728
rwrist -94.3412
rhand -18.6094 -10.4867
rfingers 7.12502
rthumb 7.68218 -40.3271
lclavicle -3.94339e-014 -2.14687e-014
lhumerus 23.8161 -54.7488 46.4259
lradius 98.5909
lwrist 77.9073
lhand -1.45358 21.9548
lfingers 7.12502
lthumb 24.1974 50.4483
rfemur -37.2168 -20.7847 28.8216
rtibia 57.5059
rfoot -1.94094 18.1963
rtoes -7.21007
lfemur 140.95 162.964 163.135
ltibia 63.0099
lfoot 10.9134 -15.4501
ltoes 9.94786
2258
root 7.60661 15.4944 11.3916 -171.649 -11.6579 -176.696
lowerback 5.40119 1.02257 -0.802999
upperback -3.51195 1.35108 2.07023
thorax -6.77079 0.722125 2.46954
lowerneck -15.2674 -6.2503 -7.66256
upperneck 26.8727 -14.6098 16.2772
head 13.5085 -6.22908 4.99944
rclavicle 1.24986e-014 1.37161e-014
rhumerus -0.385161 40.3083 -82.4988
rradius 86.0363
rwrist -94.7744
rhand -19.2195 -10.758
rfingers 7.12502
rthumb 7.09332 -40.6192
lclavicle 1.24986e-014 1.37161e-014
lhumerus 22.4958 -54.2922 47.4175
lradius 99.6847
lwrist 78.1868
lhand -1.33334 22.0365
lfingers 7.12502
lthumb 24.3127 50.5146
rfemur -36.9741 -20.2574 29.0965
rtibia 56.8498
rfoot -2.62821 17.464
rtoes -4.52888
lfemur 140.142 162.664 163.207
ltibia 64.1426
lfoot 12.0846 -16.6364
ltoes 12.0069
2259
root 7.39098 15.4569 11.4041 -171.531 -11.7996 -176.935
lowerback 5.19912 0.845744 -0.722613
upperback -3.54276 1.1142 1.96708
thorax -6.67014 0.598586 2.34443
lowerneck -15.139 -6.47292 -7.9121
upperneck 26.3352 -14.5308 16.0187
head 13.2313 -6.22992 4.94252
rclavicle -9.39258e-015 -2.38542e-015
rhumerus -0.456348 40.3077 -82.0099
rradius 86.956
rwrist -95.2851
rhand -19.917 -11.0652
rfingers 7.12502
rthumb 6.41996 -40.9479
lclavicle -9.39258e-015 -2.38542e-015
lhumerus 21.2443 -53.8583 48.3003
lradius 100.836
lwrist 78.4225
lhand -1.2703 22.1575
lfingers 7.12502
lthumb 24.3731 50.6275
rfemur -36.5054 -19.4552 29.0421
rtibia 56.1518
rfoot -4.08119 16.0617
rtoes -2.158
lfemur 139.466 162.563 163.565
ltibia 65.2258
lfoot 12.652 -17.3923
ltoes 13.1105
2260
root 7.17651 15.4151 11.4161 -171.475 -11.9496 -177.185
lowerback 5.07882 0.674616 -0.636158
upperback -3.59755 0.884619 1.83916
thorax -6.64347 0.478459 2.18762
lowerneck -14.9443 -6.69953 -8.17815
upperneck 25.7571 -14.4686 15.7863
head 12.9351 -6.24229 4.89832
rclavicle -1.17407e-014 4.17448e-015
rhumerus -0.512513 40.3484 -81.4306
rradius 87.925
rwrist -95.8724
rhand -20.6705 -11.3684
rfingers 7.12502
rthumb 5.69246 -41.272
lclavicle -1.17407e-014 4.17448e-015
lhumerus 20.0659 -53.4673 49.0514
lradius 102.043
lwrist 78.6078
lhand -1.20924 22.3261
lfingers 7.12502
lthumb 24.4316 50.7882
rfemur -35.863 -18.3949 28.6599
rtibia 55.49
rfoot -5.96576 14.1129
rtoes -0.464725
lfemur 138.948 162.634 164.198
ltibia 66.2336
lfoot 12.4325 -17.7579
ltoes 12.8863
